<?xml version="1.0" encoding="UTF-8" standalone="no"?><!-- Generator: Gravit.io --><svg xmlns="http://www.w3.org/2000/svg" xmlns:xlink="http://www.w3.org/1999/xlink" style="isolation:isolate" viewBox="0 0 48 48" width="48pt" height="48pt"><defs><clipPath id="_clipPath_EPDaLwioT2khK4IfDvUAn3Jy7ig5YmM3"><rect width="48" height="48"/></clipPath></defs><g clip-path="url(#_clipPath_EPDaLwioT2khK4IfDvUAn3Jy7ig5YmM3)"><path d=" M 0 24 C 0 10.754 10.754 0 24 0 C 37.246 0 48 10.754 48 24 C 48 37.246 37.246 48 24 48 C 10.754 48 0 37.246 0 24 Z  M 10 24 C 10 16.273 16.273 10 24 10 C 31.727 10 38 16.273 38 24 C 38 31.727 31.727 38 24 38 C 16.273 38 10 31.727 10 24 Z " fill-rule="evenodd" fill="rgb(43,101,247)"/><path d=" M 10 24 C 10 16.273 16.273 10 24 10 C 31.727 10 38 16.273 38 24 C 38 31.727 31.727 38 24 38 C 16.273 38 10 31.727 10 24 Z " fill="rgb(255,254,254)"/><path d=" M 20.5 19.5 L 27.5 19.5 C 28.052 19.5 28.5 19.948 28.5 20.5 L 28.5 27.5 C 28.5 28.052 28.052 28.5 27.5 28.5 L 20.5 28.5 C 19.948 28.5 19.5 28.052 19.5 27.5 L 19.5 20.5 C 19.5 19.948 19.948 19.5 20.5 19.5 Z " fill="rgb(42,100,247)"/></g></svg>